<?xml version="1.0" encoding="utf-8"?>
<!-- Generator: Adobe Illustrator 22.1.0, SVG Export Plug-In . SVG Version: 6.00 Build 0)  -->
<svg version="1.1" id="Camada_1" xmlns="http://www.w3.org/2000/svg" xmlns:xlink="http://www.w3.org/1999/xlink" x="0px" y="0px"
	 viewBox="0 0 150 60" style="enable-background:new 0 0 150 60;" xml:space="preserve">
<style type="text/css">
	.st0{fill:#FFFFFF;}
</style>
<path class="st0" d="M127.3,29.7l6.3,0.2c-0.4,3.3-1.5,5.8-3.4,7.5c-1.8,1.8-4.2,2.7-7.2,2.7c-3,0-5.5-1-7.5-3c-2-2-3-4.5-3-7.5
	c0-3,1-5.5,3.1-7.6c2.1-2,4.6-3.1,7.6-3.1c3,0,5.5,1,7.4,3c1.4,1.4,2.4,3.3,2.9,5.8l-6.4,0.4c-0.7-2.2-2.1-3.3-4.1-3.3
	c-1.3,0-2.3,0.4-3.2,1.3c-0.8,0.9-1.2,2-1.2,3.4c0,1.3,0.4,2.4,1.2,3.3c0.8,0.9,1.9,1.3,3.1,1.3c1.3,0,2.3-0.4,3-1.1
	C126.7,32.2,127.2,31.1,127.3,29.7 M109.9,27.3v4.5H106c-0.5,0-0.9,0.1-1.1,0.2c-0.2,0.2-0.3,0.4-0.3,0.8c0,0.4,0.1,0.7,0.3,0.8
	c0.2,0.1,0.7,0.2,1.4,0.2h4v5.7h-4.7c-2.2,0-3.9-0.5-5.1-1.6c-1.2-1.1-1.8-2.6-1.8-4.6v-7.9c0-1.9,0.6-3.4,1.7-4.5
	c1.1-1.1,2.7-1.6,4.7-1.6h5.2v5.8h-3.8c-1,0-1.5,0.3-1.5,1c0,0.4,0.1,0.7,0.4,0.8c0.2,0.2,0.7,0.2,1.3,0.2H109.9z M80.9,39.6V26.5
	c0-2.3,0.7-4.1,2.1-5.5c1.4-1.4,3.2-2.1,5.5-2.1c2.3,0,4,0.7,5.2,2c1.2,1.3,1.8,3.3,1.8,5.8v12.9h-6V26.7c0-1.2-0.4-1.8-1.3-1.8
	c-0.9,0-1.3,0.6-1.3,1.8v12.9H80.9z M63.1,39.6V26.5c0-2.3,0.7-4.1,2.1-5.5c1.4-1.4,3.2-2.1,5.5-2.1c2.3,0,4,0.7,5.2,2
	c1.2,1.3,1.8,3.3,1.8,5.8v12.9h-6V26.7c0-1.2-0.4-1.8-1.3-1.8c-0.9,0-1.3,0.6-1.3,1.8v12.9H63.1z M50.2,24.9c-1.2,0-2.3,0.5-3.1,1.4
	c-0.9,0.9-1.3,2-1.3,3.3c0,1.3,0.4,2.4,1.3,3.3c0.9,0.9,1.9,1.4,3.1,1.4c1.2,0,2.3-0.4,3.2-1.3c0.9-0.9,1.3-2,1.3-3.3
	c0-1.3-0.4-2.4-1.3-3.3C52.4,25.3,51.4,24.9,50.2,24.9z M50.3,18.9c2.8,0,5.3,1,7.3,3.1c2,2.1,3.1,4.6,3.1,7.5c0,2.9-1,5.4-3.1,7.5
	c-2.1,2.1-4.6,3.1-7.5,3.1c-2.9,0-5.4-1-7.5-3.1c-2.1-2.1-3.1-4.6-3.1-7.5c0-3,1-5.4,3.1-7.5C44.8,20,47.3,18.9,50.3,18.9z"/>
<path class="st0" d="M28.5,8c4.9-0.2,9.8,1.3,14,4.5l5-5.3c-11.2-9-27.3-8.5-37.9,1.2l5.3,5C18.8,9.9,23.6,8.1,28.5,8"/>
<path class="st0" d="M29.9,51.6c-4.9,0.2-9.8-1.3-14-4.5l-5,5.3c11.2,9,27.3,8.5,37.9-1.2l-5.3-5C39.7,49.6,34.8,51.4,29.9,51.6"/>
<path class="st0" d="M7.4,30.5c-0.2-4.9,1.3-9.8,4.5-14l-5.3-5c-9,11.2-8.5,27.3,1.2,37.9l5-5.3C9.4,40.2,7.6,35.4,7.4,30.5"/>
<path class="st0" d="M37.6,17.6l3.3-3.6c-7.3-5.5-17.5-5.1-24.5,0.8l3.6,3.3C25.1,14.2,32.3,13.9,37.6,17.6"/>
<path class="st0" d="M20.8,41.9l-3.3,3.6C24.8,51,35,50.7,42,44.7l-3.6-3.3C33.3,45.4,26.2,45.6,20.8,41.9"/>
<path class="st0" d="M17.1,21.4L13.5,18C8,25.4,8.3,35.6,14.3,42.5l3.3-3.6C13.6,33.9,13.4,26.7,17.1,21.4"/>
<path class="st0" d="M29.1,37.6c1.8,0.1,3.5-0.5,5-1.6l1.8,1.9c-4,3.2-9.8,3-13.6-0.4l1.9-1.8C25.6,36.9,27.4,37.5,29.1,37.6"/>
<path class="st0" d="M29.6,21.9c-1.8-0.1-3.5,0.5-5,1.6l-1.8-1.9c4-3.2,9.8-3,13.6,0.4l-1.9,1.8C33.1,22.6,31.4,22,29.6,21.9"/>
<path class="st0" d="M21.6,29.5c-0.1,1.8,0.5,3.5,1.6,5l-1.9,1.8c-3.2-4-3-9.8,0.4-13.6l1.8,1.9C22.3,26,21.6,27.7,21.6,29.5"/>
<path class="st0" d="M32.4,34.1l1.2,1.3c-2.6,2-6.3,1.8-8.8-0.3l1.3-1.2C27.9,35.4,30.5,35.4,32.4,34.1"/>
<path class="st0" d="M26.4,25.4l-1.2-1.3c2.6-2,6.3-1.8,8.8,0.3l-1.3,1.2C30.9,24.1,28.3,24.1,26.4,25.4"/>
<path class="st0" d="M25,32.8L23.7,34c-2-2.6-1.8-6.3,0.3-8.8l1.2,1.3C23.8,28.3,23.7,30.9,25,32.8"/>
<polygon class="st0" points="145.2,25.3 145.2,39.6 139.2,39.6 139.2,25.3 134.6,25.3 134.6,19.5 149.8,19.5 149.8,25.3 "/>
<g>
	<path class="st0" d="M66.4,48.1h-2.4v2.2h2.7V51h-3.5v-6.1h3.3v0.7h-2.5v1.9h2.4V48.1z"/>
	<path class="st0" d="M68.1,46.6l0.6,0.9c0.2,0.2,0.3,0.5,0.4,0.7h0c0.1-0.3,0.3-0.5,0.4-0.7l0.6-0.9h0.9l-1.5,2.1l1.5,2.3h-0.9
		l-0.6-1c-0.2-0.3-0.3-0.5-0.5-0.8h0c-0.1,0.3-0.3,0.5-0.5,0.8L68,51h-0.9l1.6-2.3l-1.5-2.2H68.1z"/>
	<path class="st0" d="M75,50.8c-0.2,0.1-0.7,0.3-1.3,0.3c-1.3,0-2.2-0.9-2.2-2.3c0-1.4,0.9-2.3,2.4-2.3c0.5,0,0.9,0.1,1.1,0.2
		l-0.2,0.6c-0.2-0.1-0.5-0.2-0.9-0.2c-1,0-1.6,0.7-1.6,1.7c0,1,0.7,1.6,1.5,1.6c0.5,0,0.8-0.1,1-0.2L75,50.8z"/>
	<path class="st0" d="M76.3,48.9c0,1.1,0.7,1.5,1.5,1.5c0.6,0,0.9-0.1,1.2-0.2l0.1,0.6c-0.3,0.1-0.8,0.3-1.5,0.3
		c-1.4,0-2.2-0.9-2.2-2.2c0-1.3,0.8-2.4,2.1-2.4c1.4,0,1.8,1.3,1.8,2.1c0,0.2,0,0.3,0,0.4H76.3z M78.6,48.4c0-0.5-0.2-1.3-1.1-1.3
		c-0.8,0-1.2,0.7-1.2,1.3H78.6z"/>
	<path class="st0" d="M80.4,44.5h0.8V51h-0.8V44.5z"/>
	<path class="st0" d="M83,48.9c0,1.1,0.7,1.5,1.5,1.5c0.6,0,0.9-0.1,1.2-0.2l0.1,0.6c-0.3,0.1-0.8,0.3-1.5,0.3
		c-1.4,0-2.2-0.9-2.2-2.2c0-1.3,0.8-2.4,2.1-2.4c1.4,0,1.8,1.3,1.8,2.1c0,0.2,0,0.3,0,0.4H83z M85.3,48.4c0-0.5-0.2-1.3-1.1-1.3
		c-0.8,0-1.2,0.7-1.2,1.3H85.3z M84.5,44.7l0.9,1.3h-0.6l-0.5-0.9h0L83.7,46h-0.6l0.9-1.3H84.5z"/>
	<path class="st0" d="M87.1,47.8c0-0.5,0-0.8,0-1.2h0.7l0,0.7h0c0.2-0.4,0.7-0.8,1.5-0.8c0.6,0,1.6,0.4,1.6,1.9V51h-0.8v-2.5
		c0-0.7-0.3-1.3-1-1.3c-0.5,0-0.9,0.4-1.1,0.8c0,0.1-0.1,0.2-0.1,0.4V51h-0.8V47.8z"/>
	<path class="st0" d="M95.3,50.8c-0.2,0.1-0.7,0.3-1.3,0.3c-1.3,0-2.2-0.9-2.2-2.3c0-1.4,0.9-2.3,2.4-2.3c0.5,0,0.9,0.1,1.1,0.2
		l-0.2,0.6c-0.2-0.1-0.5-0.2-0.9-0.2c-1,0-1.6,0.7-1.6,1.7c0,1,0.7,1.6,1.5,1.6c0.5,0,0.8-0.1,1-0.2L95.3,50.8z"/>
	<path class="st0" d="M97.2,45.4c0,0.3-0.2,0.5-0.5,0.5c-0.3,0-0.5-0.2-0.5-0.5c0-0.3,0.2-0.5,0.5-0.5C97,44.9,97.2,45.1,97.2,45.4z
		 M96.3,51v-4.4h0.8V51H96.3z"/>
	<path class="st0" d="M100.8,51l-0.1-0.6h0c-0.2,0.3-0.7,0.7-1.3,0.7c-0.9,0-1.3-0.6-1.3-1.3c0-1.1,0.9-1.6,2.7-1.6v-0.1
		c0-0.4-0.1-1-1-1c-0.4,0-0.8,0.1-1.1,0.3l-0.2-0.5c0.4-0.2,0.9-0.4,1.4-0.4c1.3,0,1.7,0.9,1.7,1.8v1.6c0,0.4,0,0.8,0.1,1.1H100.8z
		 M100.7,48.8c-0.9,0-1.9,0.1-1.9,1c0,0.5,0.3,0.8,0.8,0.8c0.6,0,0.9-0.4,1.1-0.7c0-0.1,0-0.2,0-0.3V48.8z"/>
	<path class="st0" d="M105.2,48.9c0,1.1,0.7,1.5,1.5,1.5c0.6,0,0.9-0.1,1.2-0.2l0.1,0.6c-0.3,0.1-0.8,0.3-1.5,0.3
		c-1.4,0-2.2-0.9-2.2-2.2c0-1.3,0.8-2.4,2.1-2.4c1.4,0,1.8,1.3,1.8,2.1c0,0.2,0,0.3,0,0.4H105.2z M107.5,48.4c0-0.5-0.2-1.3-1.1-1.3
		c-0.8,0-1.2,0.7-1.2,1.3H107.5z"/>
	<path class="st0" d="M109.3,47.8c0-0.5,0-0.8,0-1.2h0.7l0,0.7h0c0.2-0.4,0.7-0.8,1.4-0.8c0.6,0,1.1,0.4,1.2,0.9h0
		c0.1-0.2,0.3-0.4,0.5-0.6c0.3-0.2,0.6-0.3,1-0.3c0.6,0,1.4,0.4,1.4,1.9V51h-0.8v-2.5c0-0.8-0.3-1.4-1-1.4c-0.5,0-0.8,0.3-0.9,0.7
		c0,0.1-0.1,0.3-0.1,0.4V51H112v-2.6c0-0.7-0.3-1.2-0.9-1.2c-0.5,0-0.9,0.4-1,0.8c0,0.1-0.1,0.3-0.1,0.4V51h-0.8V47.8z"/>
	<path class="st0" d="M118.7,50c0.4,0.2,0.9,0.4,1.4,0.4c0.8,0,1.3-0.4,1.3-1c0-0.6-0.3-0.9-1.2-1.2c-1-0.4-1.6-0.9-1.6-1.7
		c0-1,0.8-1.7,2-1.7c0.6,0,1.1,0.1,1.4,0.3l-0.2,0.6c-0.2-0.1-0.6-0.3-1.2-0.3c-0.8,0-1.2,0.5-1.2,0.9c0,0.6,0.4,0.9,1.2,1.2
		c1,0.4,1.6,0.9,1.6,1.8c0,0.9-0.7,1.8-2.2,1.8c-0.6,0-1.2-0.2-1.6-0.4L118.7,50z"/>
	<path class="st0" d="M123.8,48.9c0,1.1,0.7,1.5,1.5,1.5c0.6,0,0.9-0.1,1.2-0.2l0.1,0.6c-0.3,0.1-0.8,0.3-1.5,0.3
		c-1.4,0-2.2-0.9-2.2-2.2c0-1.3,0.8-2.4,2.1-2.4c1.4,0,1.8,1.3,1.8,2.1c0,0.2,0,0.3,0,0.4H123.8z M126.2,48.4c0-0.5-0.2-1.3-1.1-1.3
		c-0.8,0-1.2,0.7-1.2,1.3H126.2z"/>
	<path class="st0" d="M127.9,48c0-0.5,0-1,0-1.4h0.7l0,0.9h0c0.2-0.6,0.7-1,1.2-1c0.1,0,0.2,0,0.2,0v0.8c-0.1,0-0.2,0-0.3,0
		c-0.6,0-1,0.4-1.1,1c0,0.1,0,0.2,0,0.4V51h-0.8V48z"/>
	<path class="st0" d="M131.4,46.6l0.9,2.5c0.1,0.4,0.3,0.8,0.4,1.1h0c0.1-0.4,0.2-0.7,0.4-1.1l0.9-2.5h0.8L133,51h-0.8l-1.7-4.4
		H131.4z"/>
	<path class="st0" d="M136.4,45.4c0,0.3-0.2,0.5-0.5,0.5c-0.3,0-0.5-0.2-0.5-0.5c0-0.3,0.2-0.5,0.5-0.5
		C136.2,44.9,136.4,45.1,136.4,45.4z M135.5,51v-4.4h0.8V51H135.5z"/>
	<path class="st0" d="M140.8,50.8c-0.2,0.1-0.6,0.2-1.1,0.3l-0.2,0.4c0.3,0,0.6,0.3,0.6,0.6c0,0.5-0.4,0.7-0.9,0.7
		c-0.2,0-0.5-0.1-0.6-0.2l0.1-0.4c0.1,0.1,0.3,0.1,0.5,0.1c0.2,0,0.4-0.1,0.4-0.3c0-0.2-0.3-0.3-0.7-0.4l0.4-0.7
		c-1.1-0.1-1.9-1-1.9-2.2c0-1.4,0.9-2.3,2.4-2.3c0.5,0,0.9,0.1,1.1,0.2l-0.2,0.6c-0.2-0.1-0.5-0.2-0.9-0.2c-1,0-1.6,0.7-1.6,1.7
		c0,1,0.7,1.6,1.5,1.6c0.5,0,0.8-0.1,1-0.2L140.8,50.8z"/>
	<path class="st0" d="M145.7,48.8c0,1.6-1.1,2.3-2.2,2.3c-1.2,0-2.1-0.9-2.1-2.3c0-1.5,1-2.3,2.2-2.3
		C144.8,46.5,145.7,47.4,145.7,48.8z M142.2,48.8c0,1,0.6,1.7,1.3,1.7c0.8,0,1.3-0.7,1.3-1.7c0-0.7-0.4-1.7-1.3-1.7
		C142.6,47.1,142.2,48,142.2,48.8z"/>
	<path class="st0" d="M146.6,50.2c0.2,0.2,0.7,0.3,1.1,0.3c0.6,0,0.9-0.3,0.9-0.7c0-0.4-0.2-0.6-0.8-0.8c-0.8-0.3-1.2-0.7-1.2-1.2
		c0-0.7,0.6-1.3,1.5-1.3c0.4,0,0.8,0.1,1.1,0.3l-0.2,0.6c-0.2-0.1-0.5-0.3-0.9-0.3c-0.5,0-0.7,0.3-0.7,0.6c0,0.4,0.3,0.5,0.8,0.7
		c0.8,0.3,1.2,0.7,1.2,1.3c0,0.8-0.6,1.3-1.6,1.3c-0.5,0-0.9-0.1-1.2-0.3L146.6,50.2z"/>
</g>
</svg>
